<svg width="180" height="100" viewBox="0 0 180 100" fill="none" xmlns="http://www.w3.org/2000/svg">
<path d="M0 0H101.001V100H0V0Z" fill="#DF5000"/>
<path d="M172.146 74L171.322 70.4C169.447 73.184 166.733 74.576 163.177 74.576C159.719 74.576 157.053 73.456 155.178 71.216C153.303 68.976 152.366 65.664 152.366 61.28C152.366 56.928 153.303 53.648 155.178 51.44C157.053 49.2 159.719 48.08 163.177 48.08C166.118 48.08 168.51 49.056 170.352 51.008V39.2H180V74H172.146ZM166.183 55.136C163.404 55.136 162.014 56.784 162.014 60.08V62.624C162.014 65.888 163.404 67.52 166.183 67.52C167.605 67.52 168.672 67.024 169.383 66.032C170.094 65.04 170.449 63.744 170.449 62.144V60.56C170.449 58.96 170.094 57.664 169.383 56.672C168.672 55.648 167.605 55.136 166.183 55.136Z" fill="white"/>
<path d="M138.396 48.08C141.369 48.08 143.599 48.896 145.086 50.528C146.573 52.16 147.316 54.512 147.316 57.584V74H137.668V58.736C137.668 57.648 137.378 56.784 136.796 56.144C136.246 55.472 135.455 55.136 134.42 55.136C133.224 55.136 132.255 55.52 131.511 56.288C130.768 57.056 130.396 58 130.396 59.12V74H120.749V48.656H128.651L129.281 52.496C130.283 51.152 131.592 50.08 133.208 49.28C134.857 48.48 136.586 48.08 138.396 48.08Z" fill="white"/>
<path d="M106.051 45.48V39H115.699V45.48H106.051ZM106.051 73.8V48.456H115.699V73.8H106.051Z" fill="white"/>
<path d="M56.7728 75L50.1445 43.9404H49.8466L43.2183 75H25.1207L13.1301 24H30.2595L36.1431 52.9099H36.441L42.2501 24H58.4857L64.6672 52.9099H64.9651L70.4763 24H86.8609L74.8703 75H56.7728Z" fill="white"/>
</svg>
