<svg width="20" height="20" viewBox="0 0 20 20" fill="none" xmlns="http://www.w3.org/2000/svg">
<path d="M5.70612 12.5786L8 10.5L6.92967 12.2699C5.80903 10.9663 5.13436 9.27387 5.13436 7.43282C5.13436 3.32762 8.46198 0 12.5672 0C16.6724 0 20 3.32762 20 7.43282C20 11.538 16.6724 14.8656 12.5672 14.8656C10.7261 14.8656 9.03373 14.191 7.73013 13.0703L9.37974 12.2699L7.42138 14.2939L1.70383 20L0 18.2962L5.70612 12.5786ZM12.5672 12.5786C15.4145 12.5786 17.713 10.2802 17.713 7.43282C17.713 4.58548 15.4145 2.28702 12.5672 2.28702C9.71984 2.28702 7.42138 4.58548 7.42138 7.43282C7.42138 10.2802 9.71984 12.5786 12.5672 12.5786Z" fill="white"/>
</svg>
